<?xml version="1.0" standalone="no"?>
<!DOCTYPE svg PUBLIC "-//W3C//DTD SVG 20010904//EN"
 "http://www.w3.org/TR/2001/REC-SVG-20010904/DTD/svg10.dtd">
<svg version="1.0" xmlns="http://www.w3.org/2000/svg"
 width="472.000000pt" height="63.000000pt" viewBox="0 0 472.000000 63.000000"
 preserveAspectRatio="xMidYMid meet">

<g transform="translate(0.000000,63.000000) scale(0.100000,-0.100000)"
fill="#72b626" stroke="none">
<path d="M802 544 c-28 -20 -55 -72 -77 -151 -14 -52 -21 -63 -39 -63 -19 -1
-19 -2 -4 -13 13 -10 15 -25 11 -80 -6 -70 5 -87 25 -42 9 19 9 23 -3 19 -11
-4 -11 2 -4 37 6 23 12 46 15 51 3 4 38 8 79 8 l74 0 16 -57 c8 -32 22 -71 30
-88 l14 -30 0 45 c0 25 -4 63 -9 85 -6 26 -5 44 2 52 8 10 7 13 -4 13 -10 0
-22 26 -36 80 -25 92 -48 150 -59 150 -5 0 -19 -7 -31 -16z m37 -81 c11 -38
23 -80 27 -95 l6 -28 -66 0 c-36 0 -66 4 -66 8 0 27 64 182 75 182 2 0 13 -30
24 -67z"/>
<path d="M2250 546 c-43 -24 -124 -152 -148 -236 -5 -19 -13 -43 -17 -52 -5
-13 7 -24 62 -52 37 -19 97 -55 133 -80 54 -38 66 -43 69 -28 4 21 -71 89
-154 139 -33 20 -62 38 -64 39 -8 6 78 150 122 205 56 71 55 96 -3 65z"/>
<path d="M4523 550 c-27 -11 -49 -52 -79 -144 -14 -45 -28 -72 -40 -76 -13 -5
-15 -8 -5 -15 10 -5 11 -24 6 -70 -7 -66 5 -92 25 -55 8 14 8 20 0 20 -8 0 -9
11 -5 32 14 71 10 68 94 68 l78 0 12 -52 c6 -29 20 -71 31 -93 l18 -40 1 31
c1 17 -4 56 -10 87 -9 43 -9 60 0 71 10 11 9 15 -5 18 -11 2 -25 32 -45 102
-31 111 -43 128 -76 116z m21 -47 c3 -10 14 -51 25 -90 l20 -73 -69 0 -68 0
10 37 c16 57 56 143 67 143 5 0 12 -8 15 -17z"/>
<path d="M2350 537 c0 -9 34 -32 86 -57 81 -39 164 -101 164 -122 0 -6 -36
-48 -80 -95 -44 -47 -90 -103 -101 -126 l-21 -41 48 41 c96 80 194 190 194
215 0 52 -158 168 -262 194 -21 5 -28 2 -28 -9z"/>
<path d="M3210 448 c1 -105 18 -220 35 -237 13 -14 15 -10 14 29 -1 101 -24
273 -37 278 -9 3 -12 -16 -12 -70z"/>
<path d="M3923 395 c5 -125 19 -195 38 -195 12 0 11 32 -5 179 -8 67 -20 128
-26 135 -10 9 -11 -17 -7 -119z"/>
<path d="M1332 503 c-26 -5 -50 -42 -33 -52 6 -4 15 -40 21 -81 6 -41 16 -91
22 -110 7 -19 11 -43 9 -53 -2 -17 0 -17 26 -4 68 36 116 116 117 195 1 48 -2
57 -32 83 -32 29 -65 34 -130 22z m126 -39 c39 -27 24 -104 -32 -171 -49 -58
-58 -47 -75 92 -8 59 -6 72 7 83 22 17 73 15 100 -4z"/>
<path d="M381 476 c-10 -11 -8 -16 10 -21 19 -6 20 -12 15 -48 -4 -23 -14 -49
-23 -59 -15 -17 -15 -18 0 -18 14 0 17 -10 17 -48 0 -27 7 -57 15 -69 l16 -22
72 26 c70 25 109 45 135 70 19 18 11 17 -95 -17 -52 -17 -99 -28 -104 -25 -5
4 -9 23 -9 44 l0 38 81 6 c87 6 122 21 75 33 -15 4 -57 4 -92 0 l-64 -7 0 44
0 44 59 6 c116 10 99 35 -25 36 -50 1 -75 -3 -83 -13z"/>
<path d="M3591 476 c-10 -11 -8 -16 8 -21 31 -9 29 -80 -1 -106 -20 -16 -20
-18 -5 -19 13 0 17 -8 17 -35 0 -20 6 -51 14 -70 14 -33 15 -34 53 -23 57 16
156 62 172 81 18 23 8 22 -94 -13 -49 -16 -92 -30 -97 -30 -4 0 -8 20 -8 44
l0 43 76 6 c42 3 81 10 87 16 16 16 -36 24 -104 17 l-59 -7 0 44 0 44 55 6
c110 11 92 37 -26 37 -54 0 -80 -4 -88 -14z"/>
<path d="M1226 458 c-8 -13 -18 -50 -21 -83 -4 -33 -10 -64 -12 -68 -3 -4 -17
12 -33 36 -29 47 -74 87 -96 87 -8 0 -14 9 -14 21 0 41 -25 12 -37 -42 -15
-72 -16 -140 -2 -195 17 -66 29 -37 29 71 0 95 8 122 34 112 19 -7 70 -77 101
-138 30 -59 52 -78 62 -54 3 10 2 30 -4 45 -7 18 -7 46 -1 81 13 77 20 149 14
149 -3 0 -12 -10 -20 -22z"/>
<path d="M1590 468 c-35 -10 -70 -34 -70 -49 0 -4 15 -5 33 -2 l32 5 2 -74 c1
-40 8 -93 16 -118 l16 -45 -4 40 c-15 146 -15 203 -2 208 8 3 39 8 70 12 41 5
57 4 57 -4 0 -19 -26 -65 -50 -86 -20 -18 -50 -66 -50 -79 0 -2 13 -4 28 -4
31 1 168 -48 178 -63 9 -15 24 -10 24 9 0 20 -51 52 -115 72 -58 18 -58 18
-25 59 17 21 33 53 36 72 5 31 3 36 -20 47 -32 14 -107 14 -156 0z"/>
<path d="M4115 473 c-43 -9 -76 -27 -86 -44 -11 -22 -3 -24 35 -9 l26 10 0
-68 c0 -37 7 -89 14 -117 14 -48 14 -46 9 66 -7 132 -11 124 83 135 32 4 54 3
54 -3 0 -13 -55 -99 -69 -107 -6 -4 -18 -21 -27 -38 -16 -30 -15 -31 6 -25 23
6 102 -18 167 -52 30 -15 44 -18 49 -9 11 17 -39 52 -112 78 l-65 23 30 31
c17 18 36 48 41 67 9 29 8 36 -11 52 -20 16 -92 22 -144 10z"/>
<path d="M80 341 c0 -108 3 -132 18 -151 l17 -21 97 31 c92 29 128 49 128 71
0 13 -17 11 -85 -10 -33 -10 -79 -22 -102 -26 l-43 -7 0 84 c0 95 -9 158 -21
158 -5 0 -9 -58 -9 -129z"/>
<path d="M2872 367 c-3 -117 3 -160 23 -181 13 -13 23 -12 83 4 87 24 135 45
152 65 22 27 3 29 -72 7 -40 -12 -90 -24 -110 -28 l-38 -6 -1 73 c-1 174 -32
230 -37 66z"/>
<path d="M3345 426 c9 -68 43 -174 67 -214 25 -41 36 -34 72 48 24 53 68 201
62 208 -2 1 -29 -53 -60 -120 l-58 -123 -35 115 c-38 128 -60 166 -48 86z"/>
</g>
</svg>
