<?xml version="1.0" standalone="no"?>
<!DOCTYPE svg PUBLIC "-//W3C//DTD SVG 20010904//EN"
 "http://www.w3.org/TR/2001/REC-SVG-20010904/DTD/svg10.dtd">
<svg version="1.0" xmlns="http://www.w3.org/2000/svg"
 width="607.000000pt" height="411.000000pt" viewBox="0 0 607.000000 411.000000"
 preserveAspectRatio="xMidYMid meet">

<g transform="translate(0.000000,411.000000) scale(0.100000,-0.100000)"
fill="#ffb400" stroke="none">
<path d="M1375 3737 c-33 -16 -60 -38 -80 -67 l-30 -43 0 -1422 0 -1421 28
-43 c20 -29 44 -50 80 -67 l52 -24 1113 0 1112 0 0 120 0 120 -30 0 -30 0 0
228 c0 238 4 272 26 272 8 0 14 9 14 21 0 12 8 23 20 26 15 4 20 14 20 39 l0
34 -235 0 -235 0 0 45 c0 43 -1 45 -30 45 -29 0 -30 2 -30 46 0 37 4 47 20 51
20 5 20 14 20 374 l0 369 -65 0 -65 0 0 -369 c0 -360 0 -369 20 -374 16 -4 20
-14 20 -51 0 -44 -1 -46 -30 -46 -29 0 -30 -2 -30 -45 l0 -45 -65 0 c-54 0
-65 3 -65 17 0 9 -7 24 -15 33 -14 15 -33 17 -150 13 -125 -4 -134 -3 -144 16
-32 59 -103 70 -178 26 -37 -23 -51 -25 -110 -21 l-68 4 -7 74 c-12 112 -28
188 -49 230 -11 21 -19 58 -19 85 0 26 -7 69 -16 94 -10 27 -14 57 -10 73 6
23 11 26 51 26 41 0 45 3 61 35 11 23 14 46 10 69 -5 23 -3 36 6 39 10 3 9 9
-3 22 -12 12 -15 28 -12 54 7 51 -31 129 -76 155 -21 12 -59 21 -107 24 l-74
5 -39 -40 c-60 -60 -74 -137 -36 -213 16 -33 26 -100 15 -100 -6 0 -16 -16
-24 -35 -8 -19 -31 -51 -50 -71 -20 -21 -36 -41 -36 -46 0 -5 -18 -34 -41 -64
-52 -70 -66 -105 -75 -182 l-6 -61 -30 15 c-49 25 -61 13 -53 -51 5 -45 4 -56
-10 -61 -13 -5 -15 -19 -9 -93 4 -58 1 -120 -10 -193 -20 -138 -31 -295 -22
-341 9 -46 53 -88 116 -111 28 -10 50 -24 50 -32 0 -12 -20 -14 -112 -12
l-113 3 -3 1068 -2 1067 1467 -2 1468 -3 3 -687 2 -688 120 0 120 0 0 973 c0
925 -1 974 -19 1012 -23 49 -64 89 -113 109 -33 14 -208 16 -1580 16 l-1543 0
-50 -23z m2332 -269 c20 -19 23 -31 23 -95 0 -65 -3 -77 -25 -98 -21 -22 -33
-25 -90 -25 -57 0 -69 3 -90 25 -22 21 -25 33 -25 93 0 55 4 75 21 96 19 24
27 26 92 26 59 0 75 -4 94 -22z m352 3 c43 -43 40 -161 -4 -198 -38 -33 -133
-33 -171 0 -45 39 -47 154 -4 197 29 29 151 29 179 1z m360 -7 c39 -50 22
-190 -24 -208 -9 -3 -43 -6 -76 -6 -50 0 -64 4 -84 25 -22 21 -25 33 -25 96 0
61 4 76 22 96 19 20 31 23 94 23 66 0 74 -2 93 -26z m-2750 -1993 c21 -128 32
-148 62 -112 18 22 21 23 36 9 13 -14 14 -24 5 -65 -6 -26 -14 -69 -18 -95 -5
-41 -10 -48 -28 -48 -34 0 -63 -27 -70 -65 -7 -37 3 -65 37 -102 11 -13 17
-26 13 -30 -13 -14 -79 31 -98 67 -23 44 -24 175 -2 275 8 39 17 111 20 160 6
95 14 147 20 129 3 -5 13 -61 23 -123z m901 98 c0 -5 -4 -9 -10 -9 -5 0 -10 7
-10 16 0 8 5 12 10 9 6 -3 10 -10 10 -16z m-58 -21 c-7 -7 -12 -8 -12 -2 0 6
3 14 7 17 3 4 9 5 12 2 2 -3 -1 -11 -7 -17z m-47 -27 c-3 -6 -14 -11 -23 -11
-15 1 -15 2 2 15 21 16 32 13 21 -4z m-30 -76 l6 -55 240 0 239 0 0 -250 0
-250 -115 0 c-79 0 -115 4 -115 11 0 6 11 37 24 68 14 31 32 77 42 103 9 26
23 53 30 59 16 13 19 91 4 119 -5 10 -25 23 -43 29 -49 17 -237 51 -277 51
-25 0 -49 11 -85 38 -28 21 -58 41 -69 45 -15 6 -16 10 -6 22 7 8 23 15 36 15
17 0 24 6 24 18 0 24 9 32 36 32 19 0 23 -7 29 -55z m1090 -87 c3 -18 5 -130
3 -248 l-3 -215 -264 -3 c-146 -1 -268 1 -271 5 -4 5 -5 117 -2 251 l4 242
264 0 263 0 6 -32z m-1040 -315 c-25 -61 -45 -120 -45 -135 0 -17 -16 -18
-210 -18 -203 0 -210 1 -210 20 0 18 7 20 81 20 100 0 135 20 145 80 l6 39
112 4 c61 1 115 4 120 5 4 1 5 -6 1 -15z m-585 -128 c0 -16 -27 -32 -37 -22
-3 4 -3 13 0 22 8 20 37 20 37 0z"/>
<path d="M3938 2533 c-8 -10 -79 -130 -158 -266 -128 -223 -141 -251 -131
-273 8 -17 19 -24 40 -24 27 0 36 11 124 163 176 301 207 358 207 372 0 19
-28 45 -49 45 -10 0 -25 -8 -33 -17z"/>
<path d="M3400 2392 c-75 -74 -110 -115 -110 -130 0 -25 212 -242 235 -242 21
0 45 29 45 53 0 14 -30 52 -82 104 l-83 83 83 83 c50 50 82 91 82 103 0 22
-29 54 -48 54 -6 0 -61 -49 -122 -108z"/>
<path d="M4086 2484 c-31 -30 -18 -56 66 -141 l83 -83 -83 -83 c-91 -91 -105
-127 -57 -149 22 -10 29 -7 72 32 95 85 183 182 183 200 0 21 -216 240 -236
240 -7 0 -20 -7 -28 -16z"/>
<path d="M4256 1484 c-3 -9 -6 -41 -6 -72 l0 -57 -47 -18 -48 -17 -45 50 c-25
28 -50 50 -56 50 -12 0 -116 -87 -127 -107 -6 -10 4 -30 34 -65 l43 -51 -26
-46 c-24 -44 -27 -46 -64 -42 -22 3 -55 5 -74 5 l-35 1 -14 -83 c-16 -96 -16
-97 59 -107 63 -9 68 -13 75 -71 l7 -51 -56 -32 c-31 -18 -56 -39 -56 -46 0
-21 71 -136 88 -143 8 -3 40 9 71 26 l56 30 39 -34 40 -35 -21 -64 c-25 -75
-26 -74 71 -110 45 -17 72 -22 80 -16 6 5 20 35 30 65 l19 56 57 0 57 0 19
-56 c10 -30 24 -60 30 -65 8 -6 35 -1 80 16 97 36 96 35 71 110 l-21 64 40 35
39 34 56 -30 c31 -17 63 -28 72 -25 17 6 87 120 87 142 0 7 -25 28 -56 46
l-56 32 7 51 c3 28 8 53 11 55 2 2 32 9 67 16 59 10 62 12 64 40 2 17 -3 57
-10 90 -12 60 -12 60 -47 59 -19 0 -52 -2 -73 -5 -36 -4 -39 -2 -64 42 l-27
46 43 51 c30 35 40 55 34 65 -12 21 -115 107 -127 107 -6 0 -31 -23 -56 -50
l-45 -50 -47 17 -48 18 0 57 c0 89 1 88 -100 88 -71 0 -89 -3 -94 -16z m170
-389 c106 -53 135 -178 62 -271 -27 -33 -92 -64 -138 -64 -82 0 -163 70 -176
151 -13 80 40 165 122 194 55 20 73 18 130 -10z"/>
</g>
</svg>
